<mxfile host="app.diagrams.net" agent="Mozilla/5.0 (X11; Ubuntu; Linux x86_64; rv:136.0) Gecko/20100101 Firefox/136.0" version="26.1.0">
  <diagram name="Page-1" id="TrI_DipWp6-i9dqlnvzM">
    <mxGraphModel dx="989" dy="547" grid="1" gridSize="10" guides="1" tooltips="1" connect="1" arrows="1" fold="1" page="1" pageScale="1" pageWidth="850" pageHeight="1100" math="0" shadow="0">
      <root>
        <mxCell id="0" />
        <mxCell id="1" parent="0" />
        <mxCell id="Nw7YSNeytYOUb8ANfP4x-1" value="-" style="rounded=0;whiteSpace=wrap;html=1;" vertex="1" parent="1">
          <mxGeometry x="120" y="170" width="40" height="20" as="geometry" />
        </mxCell>
        <mxCell id="Nw7YSNeytYOUb8ANfP4x-2" value="0" style="rounded=0;whiteSpace=wrap;html=1;" vertex="1" parent="1">
          <mxGeometry x="200" y="210" width="40" height="20" as="geometry" />
        </mxCell>
        <mxCell id="Nw7YSNeytYOUb8ANfP4x-3" value="0" style="rounded=0;whiteSpace=wrap;html=1;" vertex="1" parent="1">
          <mxGeometry x="240" y="250" width="40" height="20" as="geometry" />
        </mxCell>
        <mxCell id="Nw7YSNeytYOUb8ANfP4x-4" value="Layer 1" style="text;html=1;align=center;verticalAlign=middle;whiteSpace=wrap;rounded=0;" vertex="1" parent="1">
          <mxGeometry x="50" y="165" width="60" height="30" as="geometry" />
        </mxCell>
        <mxCell id="Nw7YSNeytYOUb8ANfP4x-5" value="Layer 2" style="text;html=1;align=center;verticalAlign=middle;whiteSpace=wrap;rounded=0;" vertex="1" parent="1">
          <mxGeometry x="50" y="205" width="60" height="30" as="geometry" />
        </mxCell>
        <mxCell id="Nw7YSNeytYOUb8ANfP4x-6" value="Layer 3" style="text;html=1;align=center;verticalAlign=middle;whiteSpace=wrap;rounded=0;" vertex="1" parent="1">
          <mxGeometry x="50" y="245" width="60" height="30" as="geometry" />
        </mxCell>
        <mxCell id="Nw7YSNeytYOUb8ANfP4x-7" value="-" style="rounded=0;whiteSpace=wrap;html=1;" vertex="1" parent="1">
          <mxGeometry x="120" y="210" width="40" height="20" as="geometry" />
        </mxCell>
        <mxCell id="Nw7YSNeytYOUb8ANfP4x-8" value="-" style="rounded=0;whiteSpace=wrap;html=1;" vertex="1" parent="1">
          <mxGeometry x="120" y="250" width="40" height="20" as="geometry" />
        </mxCell>
        <mxCell id="Nw7YSNeytYOUb8ANfP4x-9" value="-" style="rounded=0;whiteSpace=wrap;html=1;" vertex="1" parent="1">
          <mxGeometry x="160" y="250" width="40" height="20" as="geometry" />
        </mxCell>
        <mxCell id="Nw7YSNeytYOUb8ANfP4x-10" value="0" style="rounded=0;whiteSpace=wrap;html=1;" vertex="1" parent="1">
          <mxGeometry x="160" y="170" width="40" height="20" as="geometry" />
        </mxCell>
        <mxCell id="Nw7YSNeytYOUb8ANfP4x-11" value="-" style="rounded=0;whiteSpace=wrap;html=1;" vertex="1" parent="1">
          <mxGeometry x="160" y="210" width="40" height="20" as="geometry" />
        </mxCell>
        <mxCell id="Nw7YSNeytYOUb8ANfP4x-12" value="-" style="rounded=0;whiteSpace=wrap;html=1;" vertex="1" parent="1">
          <mxGeometry x="200" y="250" width="40" height="20" as="geometry" />
        </mxCell>
        <mxCell id="Nw7YSNeytYOUb8ANfP4x-13" value="1" style="rounded=0;whiteSpace=wrap;html=1;" vertex="1" parent="1">
          <mxGeometry x="200" y="170" width="40" height="20" as="geometry" />
        </mxCell>
        <mxCell id="Nw7YSNeytYOUb8ANfP4x-14" value="2" style="rounded=0;whiteSpace=wrap;html=1;" vertex="1" parent="1">
          <mxGeometry x="240" y="170" width="40" height="20" as="geometry" />
        </mxCell>
        <mxCell id="Nw7YSNeytYOUb8ANfP4x-15" value="1" style="rounded=0;whiteSpace=wrap;html=1;" vertex="1" parent="1">
          <mxGeometry x="240" y="210" width="40" height="20" as="geometry" />
        </mxCell>
        <mxCell id="Nw7YSNeytYOUb8ANfP4x-16" value="1" style="rounded=0;whiteSpace=wrap;html=1;" vertex="1" parent="1">
          <mxGeometry x="280" y="250" width="40" height="20" as="geometry" />
        </mxCell>
        <mxCell id="Nw7YSNeytYOUb8ANfP4x-17" value="2" style="rounded=0;whiteSpace=wrap;html=1;" vertex="1" parent="1">
          <mxGeometry x="280" y="210" width="40" height="20" as="geometry" />
        </mxCell>
        <mxCell id="Nw7YSNeytYOUb8ANfP4x-18" value="2" style="rounded=0;whiteSpace=wrap;html=1;" vertex="1" parent="1">
          <mxGeometry x="320" y="250" width="40" height="20" as="geometry" />
        </mxCell>
        <mxCell id="Nw7YSNeytYOUb8ANfP4x-20" value="3" style="rounded=0;whiteSpace=wrap;html=1;" vertex="1" parent="1">
          <mxGeometry x="280" y="170" width="40" height="20" as="geometry" />
        </mxCell>
        <mxCell id="Nw7YSNeytYOUb8ANfP4x-21" value="4" style="rounded=0;whiteSpace=wrap;html=1;" vertex="1" parent="1">
          <mxGeometry x="320" y="170" width="40" height="20" as="geometry" />
        </mxCell>
        <mxCell id="Nw7YSNeytYOUb8ANfP4x-22" value="3" style="rounded=0;whiteSpace=wrap;html=1;" vertex="1" parent="1">
          <mxGeometry x="320" y="210" width="40" height="20" as="geometry" />
        </mxCell>
        <mxCell id="Nw7YSNeytYOUb8ANfP4x-23" value="............" style="rounded=0;whiteSpace=wrap;html=1;" vertex="1" parent="1">
          <mxGeometry x="360" y="170" width="120" height="20" as="geometry" />
        </mxCell>
        <mxCell id="Nw7YSNeytYOUb8ANfP4x-25" value="............" style="rounded=0;whiteSpace=wrap;html=1;" vertex="1" parent="1">
          <mxGeometry x="360" y="210" width="120" height="20" as="geometry" />
        </mxCell>
        <mxCell id="Nw7YSNeytYOUb8ANfP4x-26" value="............" style="rounded=0;whiteSpace=wrap;html=1;" vertex="1" parent="1">
          <mxGeometry x="360" y="250" width="120" height="20" as="geometry" />
        </mxCell>
        <mxCell id="Nw7YSNeytYOUb8ANfP4x-27" value="s" style="rounded=0;whiteSpace=wrap;html=1;" vertex="1" parent="1">
          <mxGeometry x="480" y="170" width="40" height="20" as="geometry" />
        </mxCell>
        <mxCell id="Nw7YSNeytYOUb8ANfP4x-28" value="s-1" style="rounded=0;whiteSpace=wrap;html=1;" vertex="1" parent="1">
          <mxGeometry x="480" y="210" width="40" height="20" as="geometry" />
        </mxCell>
        <mxCell id="Nw7YSNeytYOUb8ANfP4x-29" value="s-2" style="rounded=0;whiteSpace=wrap;html=1;" vertex="1" parent="1">
          <mxGeometry x="480" y="250" width="40" height="20" as="geometry" />
        </mxCell>
        <mxCell id="Nw7YSNeytYOUb8ANfP4x-30" value="-" style="rounded=0;whiteSpace=wrap;html=1;" vertex="1" parent="1">
          <mxGeometry x="520" y="170" width="40" height="20" as="geometry" />
        </mxCell>
        <mxCell id="Nw7YSNeytYOUb8ANfP4x-31" value="-" style="rounded=0;whiteSpace=wrap;html=1;" vertex="1" parent="1">
          <mxGeometry x="560" y="170" width="40" height="20" as="geometry" />
        </mxCell>
        <mxCell id="Nw7YSNeytYOUb8ANfP4x-32" value="s" style="rounded=0;whiteSpace=wrap;html=1;" vertex="1" parent="1">
          <mxGeometry x="520" y="210" width="40" height="20" as="geometry" />
        </mxCell>
        <mxCell id="Nw7YSNeytYOUb8ANfP4x-33" value="-" style="rounded=0;whiteSpace=wrap;html=1;" vertex="1" parent="1">
          <mxGeometry x="560" y="210" width="40" height="20" as="geometry" />
        </mxCell>
        <mxCell id="Nw7YSNeytYOUb8ANfP4x-34" value="s-1" style="rounded=0;whiteSpace=wrap;html=1;" vertex="1" parent="1">
          <mxGeometry x="520" y="250" width="40" height="20" as="geometry" />
        </mxCell>
        <mxCell id="Nw7YSNeytYOUb8ANfP4x-35" value="s" style="rounded=0;whiteSpace=wrap;html=1;" vertex="1" parent="1">
          <mxGeometry x="560" y="250" width="40" height="20" as="geometry" />
        </mxCell>
        <mxCell id="Nw7YSNeytYOUb8ANfP4x-36" value="-" style="rounded=0;whiteSpace=wrap;html=1;" vertex="1" parent="1">
          <mxGeometry x="600" y="170" width="40" height="20" as="geometry" />
        </mxCell>
        <mxCell id="Nw7YSNeytYOUb8ANfP4x-37" value="-" style="rounded=0;whiteSpace=wrap;html=1;" vertex="1" parent="1">
          <mxGeometry x="600" y="210" width="40" height="20" as="geometry" />
        </mxCell>
        <mxCell id="Nw7YSNeytYOUb8ANfP4x-38" value="-" style="rounded=0;whiteSpace=wrap;html=1;" vertex="1" parent="1">
          <mxGeometry x="600" y="250" width="40" height="20" as="geometry" />
        </mxCell>
        <mxCell id="Nw7YSNeytYOUb8ANfP4x-39" value="" style="endArrow=classic;html=1;rounded=0;" edge="1" parent="1">
          <mxGeometry width="50" height="50" relative="1" as="geometry">
            <mxPoint x="110" y="280" as="sourcePoint" />
            <mxPoint x="670" y="280" as="targetPoint" />
          </mxGeometry>
        </mxCell>
        <mxCell id="Nw7YSNeytYOUb8ANfP4x-40" value="Time" style="text;html=1;align=center;verticalAlign=middle;whiteSpace=wrap;rounded=0;" vertex="1" parent="1">
          <mxGeometry x="365" y="280" width="60" height="30" as="geometry" />
        </mxCell>
      </root>
    </mxGraphModel>
  </diagram>
</mxfile>
